inDegrees=yes
name=ik_S56_A04_T01
DataType=double
version=3
OpenSimVersion=4.3-2021-08-27-4bc7ad9
endheader
time	pelvis_tilt	pelvis_list	pelvis_rotation	pelvis_tx	pelvis_ty	pelvis_tz	hip_flexion_r	hip_adduction_r	hip_rotation_r	knee_angle_r	knee_angle_r_beta	ankle_angle_r	subtalar_angle_r	mtp_angle_r	hip_flexion_l	hip_adduction_l	hip_rotation_l	knee_angle_l	knee_angle_l_beta	ankle_angle_l	subtalar_angle_l	mtp_angle_l	lumbar_extension	lumbar_bending	lumbar_rotation	arm_flex_r	arm_add_r	arm_rot_r	elbow_flex_r	pro_sup_r	wrist_flex_r	wrist_dev_r	arm_flex_l	arm_add_l	arm_rot_l	elbow_flex_l	pro_sup_l	wrist_flex_l	wrist_dev_l
0	0	0	0	0	0.9399999999999999	0	0	0	0	0	0	0	0	0	0	0	0	0	0	0	0	0	0	0	0	0	0	0	0	89.99999999963507	0	0	0	0	0	0	89.99999999869995	0	0
0.02	23.48864445444858	12.98067376952897	36.67087862929029	0	0.9399999999999999	0	34.29872179550492	-13.42233080476613	12.52912057137796	81.60818499404091	1.424331524722643	0	0	0	41.06169286025213	11.01044716902112	-1.179473680881555	86.06036308189574	1.502036691240855	0	0	0	0	0	0	2.346291757413233	-2.346291757413233	0.4289638569486565	13.52985101312911	89.57103616801753	0	0	2.346291757413233	-2.346291757413233	0.4289638569486565	13.52985101312911	89.5710361671629	0	0
0.04	23.49796642984386	12.9848833072472	36.68879158716194	0	0.9399999999999999	0	34.26546028701258	-13.4486843428935	12.51465510656941	81.545857911506	1.423243711919246	0	0	0	41.03558008590404	11.02347978466008	-1.156800980412604	86.00959188547597	1.501150566698153	0	0	0	0	0	0	2.52852116348961	-2.52852116348961	0.4637222515736502	14.39385192764719	89.53627777545643	0	0	2.52852116348961	-2.52852116348961	0.4637222515736502	14.39385192764719	89.53627777460873	0	0
0.06	23.50562936393904	12.98532960405497	36.68938029708454	0	0.9399999999999999	0	34.27091175530409	-13.43779444387467	12.50804973501953	81.55721047969683	1.423441851612734	0	0	0	41.01835909726947	11.0295637579757	-1.169263891623523	86.01639468034389	1.501269297866936	0	0	0	0	0	0	2.681480078727472	-2.681480078727472	0.492970761606976	15.17887819621317	89.5070292671614	0	0	2.681480078727472	-2.681480078727472	0.492970761606976	15.17887819621317	89.50702926631915	0	0
0.08	23.51358463839878	12.98029790478615	36.68588894338485	0	0.9399999999999999	0	34.25268895260751	-13.43365947187793	12.51524266971049	81.54709304414131	1.423265269050431	0	0	0	41.02516262518008	11.02110881548933	-1.163772807250196	86.01551803638877	1.501253997543552	0	0	0	0	0	0	2.843986171409154	-2.843986171409154	0.5238949512988929	15.94846573741746	89.47610507930457	0	0	2.843986171409154	-2.843986171409154	0.5238949512988929	15.94846573741746	89.47610507846839	0	0
0.1	23.51552610474776	12.98975587713191	36.68766319543074	0	0.9399999999999999	0	34.24193242148841	-13.44137331949173	12.52785164663324	81.53912993669717	1.423126286606841	0	0	0	41.02564726091701	11.03108801102163	-1.175689370589468	86.00301461478192	1.501035771668747	0	0	0	0	0	0	2.985960806806239	-2.985960806806239	0.5508782807828851	16.6082851962426	89.44912175142126	0	0	2.985960806806239	-2.985960806806239	0.5508782807828851	16.6082851962426	89.44912175059014	0	0
0.12	23.5123717802575	12.97639501568569	36.68167095256166	0	0.9399999999999999	0	34.25867757964927	-13.4275334199064	12.54232581228554	81.55002854979233	1.423316503289253	0	0	0	41.03212585638423	11.00877467368566	-1.176160402757157	86.03068998193463	1.50151879794726	0	0	0	0	0	0	3.135484042741175	-3.135484042741175	0.5792685084500242	17.31069972679771	89.42073152543792	0	0	3.135484042741175	-3.135484042741175	0.5792685084500242	17.31069972679771	89.42073152461207	0	0
0.14	23.52618151657196	12.99061636918381	36.68204736496664	0	0.9399999999999999	0	34.21705103393432	-13.44357958088667	12.53628431013298	81.50020338814227	1.422446890168121	0	0	0	41.00683584853787	11.01574965199155	-1.192673370788534	85.9747972385527	1.500543285547273	0	0	0	0	0	0	3.276597836423341	-3.27659783642334	0.6059691368692001	17.96160865415302	89.39403089860103	0	0	3.276597836423341	-3.27659783642334	0.6059691368692001	17.96160865415302	89.39403089778051	0	0
0.16	23.53178553100217	12.96780545528291	36.67650667779771	0	0.9399999999999999	0	34.20846452362664	-13.4018887905544	12.50960150289851	81.39490580118584	1.420609100581326	0	0	0	40.97554495891693	10.98482368506784	-1.182264006079415	85.86773295813791	1.498674661342757	0	0	0	0	0	0	3.549777723727305	-3.549777723727305	0.6576865320751853	19.27900424095717	89.34231350646012	0	0	3.549777723727305	-3.549777723727305	0.6576865320751853	19.27900424095717	89.34231350564984	0	0
0.18	23.5356081280758	13.00129497360673	36.67621490610509	0	0.9399999999999999	0	34.21121172790335	-13.45797544137672	12.55837432076318	81.48285215432746	1.422144054008769	0	0	0	40.97727994197915	11.01352585164394	-1.187916742777104	85.95981014360184	1.500281711395072	0	0	0	0	0	0	3.77263890758573	-3.77263890758573	0.6999726839974882	20.38748744137268	89.30002735704562	0	0	3.77263890758573	-3.77263890758573	0.6999726839974882	20.38748744137268	89.30002735624359	0	0
0.2	23.51969124992664	12.98262634815073	36.68504435819552	0	0.9399999999999999	0	34.24867473060925	-13.44088775227301	12.55003831318728	81.52909280003361	1.422951105524589	0	0	0	41.02562744472831	11.01035492699727	-1.198208601037835	86.01674387241187	1.501275392418244	0	0	0	0	0	0	3.883235581748665	-3.883235581748665	0.7207661764088781	20.87504118794008	89.2792338658643	0	0	3.883235581748665	-3.883235581748665	0.7207661764088781	20.87504118794008	89.27923386506613	0	0
0.22	23.52292637807354	12.98635772258148	36.67955757140334	0	0.9399999999999999	0	34.22382582729487	-13.43905267001855	12.54963625777765	81.49144530654148	1.422294032808028	0	0	0	41.02189929079823	11.01189569520818	-1.193414900220799	86.00663267327283	1.501098918701943	0	0	0	0	0	0	3.995365317304306	-3.995365317304306	0.7417879227135792	21.35782554051449	89.25821212080214	0	0	3.995365317304306	-3.995365317304306	0.7417879227135792	21.35782554051449	89.25821212000788	0	0
0.24	23.51829534003815	12.98092986314128	36.69518514113028	0	0.9399999999999999	0	34.23129298577837	-13.43718578249847	12.53075484651662	81.50908997702057	1.422601990403318	0	0	0	41.01641640172486	11.01358010157075	-1.178440564286673	86.02955820915494	1.50149904478587	0	0	0	0	0	0	4.098968959434138	-4.098968959434138	0.7612094834828453	21.81076080544551	89.23879056118103	0	0	4.098968959434138	-4.098968959434138	0.7612094834828453	21.81076080544551	89.23879056039038	0	0
0.26	23.51702662183645	12.97756234550703	36.6915971851183	0	0.9399999999999999	0	34.23352982993924	-13.44060339216212	12.5397026389691	81.48968465609292	1.422263303660724	0	0	0	41.02196049930978	11.01645947855625	-1.174699012132266	86.00718849820039	1.501108619676994	0	0	0	0	0	0	4.20841002780129	-4.20841002780129	0.7816455709208191	22.27392065661305	89.21835447495012	0	0	4.20841002780129	-4.20841002780129	0.7816455709208191	22.27392065661305	89.21835447416325	0	0
0.28	23.51049821267426	12.98283612915246	36.69528832787205	0	0.9399999999999999	0	34.23367782302406	-13.44113988570865	12.52884876813557	81.50771616700519	1.422578012895253	0	0	0	41.02483725415401	11.01932424447608	-1.165087414702628	86.02867906168061	1.501483700767833	0	0	0	0	0	0	4.309180988476915	-4.309180988476915	0.8004644798488794	22.69670508490192	89.19953556713327	0	0	4.309180988476915	-4.309180988476915	0.8004644798488794	22.69670508490192	89.19953556634988	0	0
0.3	23.50785626615139	12.99542740578211	36.70764464327807	0	0.9399999999999999	0	34.23587406716089	-13.45367811312201	12.52442889133303	81.49010435451184	1.42227062878	0	0	0	41.01932234428268	11.04065850435983	-1.16257080277426	86.03897136332884	1.501663335319203	0	0	0	0	0	0	4.426195249994134	-4.426195249994134	0.8222535803983263	23.1898871949709	89.17774646787056	0	0	4.426195249994134	-4.426195249994134	0.8222535803983263	23.1898871949709	89.17774646709046	0	0
0.32	23.51104554394976	12.9913296616483	36.69876456128005	0	0.9399999999999999	0	34.21966300156078	-13.4378820055169	12.52311794728888	81.45438082086989	1.421647135497501	0	0	0	41.01716916454048	11.03641598823205	-1.161740296637897	86.01351122555192	1.501218972086984	0	0	0	0	0	0	4.528906940045194	-4.528906940045194	0.8413695684046598	23.61720182248792	89.15863048099202	0	0	4.528906940045194	-4.528906940045194	0.8413695684046598	23.61720182248792	89.15863048021568	0	0
0.34	23.49656358173476	13.00713819124329	36.72230776781905	0	0.9399999999999999	0	34.23169626349569	-13.47559109655755	12.52645377912899	81.46992636438165	1.421918456415793	0	0	0	41.02259733670054	11.06744525470158	-1.157615755627783	86.04518057374835	1.501771706484972	0	0	0	0	0	0	4.620575756916597	-4.620575756916597	0.858433135238853	23.99856504971984	89.14156691516455	0	0	4.620575756916597	-4.620575756916597	0.858433135238853	23.99856504971984	89.14156691439148	0	0
0.36	23.48185563826368	13.00070808023835	36.72293661538387	0	0.9399999999999999	0	34.22841903194163	-13.47810825652121	12.5138151171679	81.45013397873056	1.421573014119357	0	0	0	41.03362135079411	11.05374446495308	-1.1612746995568	86.01809928255288	1.50129904878792	0	0	0	0	0	0	4.731597935863664	-4.731597935863664	0.8792440467643706	24.49650110033705	89.12075600486946	0	0	4.731597935863664	-4.731597935863664	0.8792440467643706	24.49650110033705	89.12075600410022	0	0
0.3800000000000001	23.50478098785824	12.98316007838547	36.6994565483984	0	0.9399999999999999	0	34.20522613414713	-13.42416274652129	12.49115855715441	81.36656000114907	1.420114373041572	0	0	0	40.99477232340898	11.00874294768409	-1.168716811221242	85.90427023722462	1.49931235716254	0	0	0	0	0	0	4.86917982956971	-4.86917982956971	0.9049155453031182	25.09630597515693	89.09508450784658	0	0	4.86917982956971	-4.86917982956971	0.9049155453031182	25.09630597515693	89.09508450708208	0	0
0.4000000000000001	23.49223368010087	12.99620285456666	36.68951481560244	0	0.9399999999999999	0	34.24441528735181	-13.44068504634192	12.52922141407183	81.45253238876549	1.42161487427128	0	0	0	41.01970141798499	11.03506954534686	-1.176083696006777	86.01470930884517	1.501239882585164	0	0	0	0	0	0	4.952129760320729	-4.952129760320729	0.9203400871169876	25.44296856114157	89.07965996694263	0	0	4.952129760320729	-4.952129760320729	0.9203400871169876	25.44296856114157	89.07965996618117	0	0
0.4200000000000001	23.48459616975887	12.97931932328753	36.70461767676488	0	0.9399999999999999	0	34.2365277224407	-13.43819096173809	12.5127838216838	81.42465394710929	1.421128303674054	0	0	0	41.03368115224797	11.03366699264753	-1.160006447594414	86.00973867456354	1.501153128651037	0	0	0	0	0	0	5.047849399685741	-5.047849399685741	0.9381345904831329	25.842747278049	89.06186546462611	0	0	5.047849399685741	-5.047849399685741	0.9381345904831329	25.842747278049	89.06186546386795	0	0
0.4400000000000001	23.47604634700664	12.98971012992712	36.70855615908018	0	0.9399999999999999	0	34.24358941018676	-13.45829102766913	12.51044743562324	81.39869084854649	1.420675162120113	0	0	0	41.02453776871062	11.03123434400822	-1.16836811345856	86.00410648160577	1.501054828339817	0	0	0	0	0	0	5.162670840688664	-5.162670840688664	0.9594901135775511	26.32494573571012	89.04050994279123	0	0	5.162670840688664	-5.162670840688664	0.9594901135775511	26.32494573571012	89.04050994203736	0	0
